<!DOCTYPE svg PUBLIC "-//W3C//DTD SVG 1.1//EN" "http://www.w3.org/Graphics/SVG/1.1/DTD/svg11.dtd">
<!-- Uploaded to: SVG Repo, www.svgrepo.com, Transformed by: SVG Repo Mixer Tools -->
<svg fill="#ffffff" height="800px" width="800px" version="1.1" id="Layer_1" xmlns="http://www.w3.org/2000/svg" xmlns:xlink="http://www.w3.org/1999/xlink" viewBox="-47.26 -47.26 567.13 567.13" xml:space="preserve">
<g id="SVGRepo_bgCarrier" stroke-width="0"/>
<g id="SVGRepo_tracerCarrier" stroke-linecap="round" stroke-linejoin="round"/>
<g id="SVGRepo_iconCarrier"> <g> <g> <path d="M472.614,264.846v-57.072l-51.8-8.824c-4.879-24.233-14.438-46.753-27.654-66.645l30.42-42.911l-40.358-40.358 l-42.911,30.421C320.419,66.24,297.901,56.679,273.667,51.8L264.843,0h-57.074l-8.82,51.8 c-24.234,4.88-46.754,14.44-66.647,27.657L89.39,49.036L49.034,89.394l30.421,42.911c-13.216,19.892-22.776,42.411-27.657,66.645 l-51.797,8.824v57.072l51.797,8.822c4.881,24.233,14.441,46.755,27.657,66.644l-30.421,42.913l40.356,40.356l42.914-30.421 c19.889,13.216,42.409,22.776,66.644,27.656l8.82,51.799h57.074l8.824-51.799c24.234-4.88,46.752-14.439,66.644-27.656 l42.911,30.421l40.358-40.356l-30.42-42.913c13.215-19.889,22.775-42.41,27.654-66.644L472.614,264.846z M236.308,333.1 c-53.458,0-96.794-43.334-96.794-96.793c0-53.457,43.336-96.792,96.794-96.792c53.457,0,96.793,43.335,96.793,96.792 C333.1,289.766,289.764,333.1,236.308,333.1z"/> </g> </g> </g>
</svg>