<?xml version="1.0"?><svg version="1.1" id="Layer_1" xmlns="http://www.w3.org/2000/svg" x="0" y="0" viewBox="0 0 100 100" xml:space="preserve"><path fill="#e0e0e0" d="M19.31 9.41v81.18h61.38V28.153L61.947 9.41z"/><path fill="#656666" d="M80.537 28L62 9.463V28z"/><circle cx="50" cy="62" r="20" fill="#323232"/><path d="M50.455 48.867a.616.616 0 0 0-.91 0L36.83 62.734a.618.618 0 0 0 .455 1.035h8.841v10.7c0 .477.387.864.864.864h6.02a.864.864 0 0 0 .864-.864v-10.7h8.841a.618.618 0 0 0 .455-1.035L50.455 48.867z" fill="#fff"/><metadata xmlns:d="https://loading.io/stock/">
<d:name>upload</d:name>
<d:tags>upload,sync,share,send,backup,file</d:tags>
<d:license>by</d:license>
<d:slug>8p08vg</d:slug>
</metadata></svg>