<!DOCTYPE svg PUBLIC "-//W3C//DTD SVG 1.1//EN" "http://www.w3.org/Graphics/SVG/1.1/DTD/svg11.dtd">
<!-- Uploaded to: SVG Repo, www.svgrepo.com, Transformed by: SVG Repo Mixer Tools -->
<svg width="800px" height="800px" viewBox="0 0 24 24" xmlns="http://www.w3.org/2000/svg" fill="none">
<g id="SVGRepo_bgCarrier" stroke-width="0"/>
<g id="SVGRepo_tracerCarrier" stroke-linecap="round" stroke-linejoin="round"/>
<g id="SVGRepo_iconCarrier">
<path fill="#ffffff" fill-rule="evenodd" d="M1 12C1 5.925 5.925 1 12 1s11 4.925 11 11-4.925 11-11 11S1 18.075 1 12zm6.498-4.865a1 1 0 0 1 .998-.003L15 10.848V8a1 1 0 1 1 2 0v8a1 1 0 1 1-2 0v-2.848l-6.504 3.716A1 1 0 0 1 7 16V8a1 1 0 0 1 .498-.865z" clip-rule="evenodd"/>
</g>
</svg>