<?xml version="1.0" encoding="utf-8"?><svg xml:space="preserve" viewBox="0 0 100 100" y="0" x="0" xmlns="http://www.w3.org/2000/svg" id="Layer_1" version="1.1" width="200px" height="200px" xmlns:xlink="http://www.w3.org/1999/xlink" style="width:100%;height:100%;background-size:initial;background-repeat-y:initial;background-repeat-x:initial;background-position-y:initial;background-position-x:initial;background-origin:initial;background-color:initial;background-clip:initial;background-attachment:initial;animation-play-state:paused" ><g class="ldl-scale" style="transform-origin:50% 50%;transform:rotate(0deg) scale(0.8, 0.8);animation-play-state:paused" ><path d="M19.31 9.41v81.18h61.38V28.153L61.947 9.41z" fill="#e0e0e0" style="fill:rgb(224, 224, 224);animation-play-state:paused" ></path>
<path d="M80.537 28L62 9.463V28z" fill="#656666" style="fill:rgb(101, 102, 102);animation-play-state:paused" ></path>
<path fill="#323232" d="M38.281 56.195H16.338c-.467 0-.9.139-1.27.369a2.416 2.416 0 0 0-1.154 2.055v21.944c0 .87.464 1.627 1.154 2.055.37.23.803.369 1.27.369h21.944a2.427 2.427 0 0 0 2.424-2.424V58.619a2.428 2.428 0 0 0-2.425-2.424zm-2.579 11.371l-9.186 8.746-.143-.073-.931-4.939-.642.484c-1.601 1.203-2.219 2.851-2.132 5.686a.715.715 0 0 1-.225.544.714.714 0 0 1-.563.199l-3.227-.266a.67.67 0 0 1-.616-.685c.037-3.254.716-7.883 6.171-10.502l.346-.166-.934-4.954.115-.116 11.695 4.483c.309.108.53.365.591.687a.912.912 0 0 1-.319.872z" style="fill:rgb(50, 50, 50);animation-play-state:paused" ></path>
<path fill="#fff" d="M35.43 66.007l-11.695-4.483-.115.116.935 4.954-.346.166c-5.456 2.619-6.135 7.248-6.171 10.502a.67.67 0 0 0 .616.685l3.227.266a.71.71 0 0 0 .563-.199.715.715 0 0 0 .225-.544c-.086-2.835.531-4.483 2.132-5.686l.643-.483.932 4.938.143.073 9.186-8.746a.909.909 0 0 0-.275-1.559z" style="fill:rgb(255, 255, 255);animation-play-state:paused" ></path>
<metadata xmlns:d="https://loading.io/stock/" style="animation-play-state:paused" ><d:name style="animation-play-state:paused" >shortcut</d:name>
<d:tags style="animation-play-state:paused" >shortcut,link,jump,symbolic link,file</d:tags>
<d:license style="animation-play-state:paused" >by</d:license>
<d:slug style="animation-play-state:paused" >uw16p4</d:slug></metadata></g><!-- generated by https://loading.io/ --></svg>