<?xml version="1.0" encoding="utf-8"?><svg xml:space="preserve" viewBox="0 0 100 100" y="0" x="0" xmlns="http://www.w3.org/2000/svg" id="Layer_1" version="1.1" width="200px" height="200px" xmlns:xlink="http://www.w3.org/1999/xlink" style="width:100%;height:100%;background-size:initial;background-repeat-y:initial;background-repeat-x:initial;background-position-y:initial;background-position-x:initial;background-origin:initial;background-color:initial;background-clip:initial;background-attachment:initial;animation-play-state:paused" ><g class="ldl-scale" style="transform-origin:50% 50%;transform:rotate(0deg) scale(0.8, 0.8);animation-play-state:paused" ><path d="M19.31 9.41v81.18h61.38V28.153L61.947 9.41z" fill="#e0e0e0" style="fill:rgb(224, 224, 224);animation-play-state:paused" ></path>
<path d="M80.537 28L62 9.463V28z" fill="#656666" style="fill:rgb(101, 102, 102);animation-play-state:paused" ></path>
<g style="animation-play-state:paused" ><g style="animation-play-state:paused" ><path fill="#323232" d="M54.108 66.766a5.312 5.312 0 0 1-4.669 2.78h-1.945a2.212 2.212 0 0 1-2.202-2.428c.078-.786.182-1.546.311-1.903a7.714 7.714 0 0 1 1.451-2.448c.642-.738 2.085-2.038 4.33-3.898 1.196-.975 1.794-1.868 1.794-2.68s-.24-1.443-.72-1.894c-.48-.45-1.207-.676-2.182-.676-1.049 0-1.916.347-2.603 1.041-.409.414-.73 1.01-.964 1.791-.31 1.037-1.29 1.726-2.364 1.593l-4.314-.534c-1.299-.161-2.184-1.432-1.847-2.696.551-2.068 1.558-3.806 3.021-5.215 2.001-1.927 5.068-2.891 9.203-2.891 3.219 0 5.818.672 7.797 2.016 2.687 1.816 4.031 4.238 4.031 7.265 0 1.255-.347 2.466-1.041 3.633-.694 1.167-2.112 2.592-4.253 4.275-1.492 1.182-2.433 2.13-2.824 2.846l-.01.023z" style="fill:rgb(50, 50, 50);animation-play-state:paused" ></path>
<path fill="#323232" d="M48.804 71.783h1.063a3.976 3.976 0 1 1 0 7.952h-1.063a3.976 3.976 0 1 1 0-7.952z" style="fill:rgb(50, 50, 50);animation-play-state:paused" ></path></g></g>
<metadata xmlns:d="https://loading.io/stock/" style="animation-play-state:paused" ><d:name style="animation-play-state:paused" >unknown</d:name>
<d:tags style="animation-play-state:paused" >unknown,general,question,file</d:tags>
<d:license style="animation-play-state:paused" >by</d:license>
<d:slug style="animation-play-state:paused" >7q7nf9</d:slug></metadata></g><!-- generated by https://loading.io/ --></svg>